<svg width="15" height="19" viewBox="0 0 15 19" fill="none" xmlns="http://www.w3.org/2000/svg">
<path d="M3.68139 3.99898C3.32227 3.99898 3.03115 4.28986 3.03115 4.64868C3.03115 5.0075 3.32227 5.29838 3.68139 5.29838H10.3838C10.7429 5.29838 11.034 5.0075 11.034 4.64868C11.034 4.28986 10.7429 3.99898 10.3838 3.99898H3.68139Z" fill="#D6D8DE"/>
<path d="M3.03115 7.64729C3.03115 7.28847 3.32227 6.99759 3.68139 6.99759H10.3838C10.7429 6.99759 11.034 7.28847 11.034 7.64729C11.034 8.00611 10.7429 8.29699 10.3838 8.29699H3.68139C3.32227 8.29699 3.03115 8.00611 3.03115 7.64729Z" fill="#D6D8DE"/>
<path d="M3.68139 9.9962C3.32227 9.9962 3.03115 10.2871 3.03115 10.6459C3.03115 11.0047 3.32227 11.2956 3.68139 11.2956H6.88255C7.24167 11.2956 7.53279 11.0047 7.53279 10.6459C7.53279 10.2871 7.24167 9.9962 6.88255 9.9962H3.68139Z" fill="#D6D8DE"/>
<path fill-rule="evenodd" clip-rule="evenodd" d="M0.0375977 16.3938C0.0375977 17.6537 1.42793 18.4188 2.49367 17.7454L4.44704 16.5111L6.05528 17.691C6.61901 18.1046 7.3862 18.1046 7.94992 17.691L9.56475 16.5063L11.5843 17.7582C12.6505 18.4192 14.0287 17.653 14.0287 16.3993L14.0376 2.60001C14.0376 1.16474 12.8731 0.0012207 11.4367 0.0012207H2.64746C1.211 0.0012207 0.0465244 1.16474 0.0465244 2.60001L0.0375977 16.3938ZM2.64746 1.30062C1.92923 1.30062 1.34699 1.88238 1.34699 2.60001L1.33807 16.3938C1.33807 16.63 1.59875 16.7735 1.79858 16.6472L4.09799 15.1942C4.3415 15.0404 4.65448 15.0512 4.88672 15.2216L6.82498 16.6437C6.93067 16.7212 7.07452 16.7212 7.18022 16.6437L9.12203 15.219C9.35249 15.0499 9.66269 15.0378 9.90566 15.1884L12.2699 16.6541C12.4698 16.778 12.7282 16.6343 12.7282 16.3993L12.7371 2.60001C12.7371 1.88238 12.1549 1.30062 11.4367 1.30062H2.64746Z" fill="#D6D8DE"/>
</svg>
