<svg width="18" height="18" viewBox="0 0 18 18" fill="none" xmlns="http://www.w3.org/2000/svg">
<path d="M6.79854 4.55005C7.0705 4.78437 7.10101 5.1948 6.86668 5.46676L5.29324 7.29292C5.17798 7.42669 5.01326 7.50781 4.83695 7.51763C4.66065 7.52745 4.48794 7.46511 4.35854 7.34497L3.17846 6.24927C2.91538 6.00501 2.90013 5.59374 3.14439 5.33067C3.38865 5.06759 3.79993 5.05234 4.063 5.2966L4.74872 5.93329L5.88183 4.61819C6.11615 4.34623 6.52658 4.31572 6.79854 4.55005Z" fill="#D6D8DE"/>
<path d="M8.41009 5.95554C8.41009 6.31453 8.70111 6.60554 9.06009 6.60554L11.35 6.60554C11.709 6.60554 12 6.31452 12 5.95554C12 5.59655 11.709 5.30554 11.35 5.30554L9.06009 5.30554C8.70111 5.30554 8.41009 5.59656 8.41009 5.95554Z" fill="#D6D8DE"/>
<path d="M9.06009 12.7239C8.70111 12.7239 8.41009 12.4329 8.41009 12.0739C8.41009 11.7149 8.70111 11.4239 9.06009 11.4239L11.35 11.4239C11.709 11.4239 12 11.7149 12 12.0739C12 12.4329 11.709 12.7239 11.35 12.7239L9.06009 12.7239Z" fill="#D6D8DE"/>
<path fill-rule="evenodd" clip-rule="evenodd" d="M2.99744 11.3739C2.99744 10.6559 3.57947 10.0739 4.29744 10.0739H5.69744C6.41541 10.0739 6.99744 10.6559 6.99744 11.3739V12.7739C6.99744 13.4919 6.41541 14.0739 5.69744 14.0739H4.29744C3.57947 14.0739 2.99744 13.4919 2.99744 12.7739V11.3739ZM4.29744 11.3739H5.69744V12.7739H4.29744V11.3739Z" fill="#D6D8DE"/>
<path fill-rule="evenodd" clip-rule="evenodd" d="M16.39 5.82489C17.2283 5.82489 17.2283 4.52489 16.39 4.52489H15V3.03491C15 1.37491 13.66 0.0349121 12 0.0349121H3C1.34 0.0349121 0 1.37491 0 3.03491V14.9999C0 16.6599 1.34 17.9999 3 17.9999H12C13.66 17.9999 15 16.6499 15 14.9999V13.4999H16.39C16.749 13.4999 17.04 13.2089 17.04 12.8499C17.04 12.491 16.749 12.1999 16.39 12.1999H15V5.82489H16.39ZM12 1.33491C12.94 1.33491 13.7 2.09491 13.7 3.03491L13.7 14.9999C13.7 15.9399 12.94 16.6999 12 16.6999H3C2.06 16.6999 1.3 15.9399 1.3 14.9999L1.3 3.03491C1.3 2.09491 2.06 1.33491 3 1.33491L12 1.33491Z" fill="#D6D8DE"/>
</svg>
