<svg width="16" height="20" viewBox="0 0 16 20" fill="none" xmlns="http://www.w3.org/2000/svg">
<path fill-rule="evenodd" clip-rule="evenodd" d="M4.88002 11.65C4.13104 11.65 3.53002 12.251 3.53002 13V14.32C3.53002 15.0689 4.13104 15.67 4.88002 15.67H7.20002C7.94901 15.67 8.55002 15.0689 8.55002 14.32V13C8.55002 12.251 7.94901 11.65 7.20002 11.65H4.88002ZM4.83002 13C4.83002 12.9812 4.83633 12.9704 4.84339 12.9633C4.85046 12.9563 4.86122 12.95 4.88002 12.95H7.20002C7.21883 12.95 7.22959 12.9563 7.23665 12.9633C7.24372 12.9704 7.25002 12.9812 7.25002 13V14.32C7.25002 14.3388 7.24372 14.3495 7.23665 14.3566C7.22959 14.3637 7.21883 14.37 7.20002 14.37H4.88002C4.86122 14.37 4.85046 14.3637 4.84339 14.3566C4.83633 14.3495 4.83002 14.3388 4.83002 14.32V13Z" fill="#D6D8DE"/>
<path fill-rule="evenodd" clip-rule="evenodd" d="M4.78998 1.59995C4.78998 1.24097 4.49896 0.949951 4.13998 0.949951C3.78099 0.949951 3.48998 1.24097 3.48998 1.59995V2.98996H3C1.34 2.98996 0 4.32996 0 5.98996V16.12C0 17.78 1.34 19.12 3 19.12H13C14.66 19.12 16 17.78 16 16.12V5.98996C16 4.32996 14.65 2.98996 13 2.98996H12.5V1.59995C12.5 1.24097 12.209 0.949951 11.85 0.949951C11.491 0.949951 11.2 1.24097 11.2 1.59995V2.98996H8.64999V1.59995C8.64999 1.24097 8.35898 0.949951 7.99999 0.949951C7.64101 0.949951 7.34999 1.24097 7.34999 1.59995V2.98996H4.78998V1.59995ZM3.48998 4.28996V5.85995C3.48998 6.21894 3.78099 6.50995 4.13998 6.50995C4.49896 6.50995 4.78998 6.21894 4.78998 5.85995V4.28996H7.34999V5.85995C7.34999 6.21894 7.64101 6.50995 7.99999 6.50995C8.35898 6.50995 8.64999 6.21894 8.64999 5.85995V4.28996H11.2V5.85995C11.2 6.21894 11.491 6.50995 11.85 6.50995C12.209 6.50995 12.5 6.21894 12.5 5.85995V4.28996H13C13.94 4.28996 14.7 5.04996 14.7 5.98996V8.34997H1.3V5.98996C1.3 5.04996 2.06 4.28996 3 4.28996H3.48998ZM1.3 9.64997H14.7V16.12C14.7 17.06 13.94 17.82 13 17.82H3C2.06 17.82 1.3 17.06 1.3 16.12V9.64997Z" fill="#D6D8DE"/>
</svg>
