<svg width="18" height="17" viewBox="0 0 18 17" fill="none" xmlns="http://www.w3.org/2000/svg">
<path fill-rule="evenodd" clip-rule="evenodd" d="M16.028 15.6972V7.99094C16.028 6.91399 15.1549 6.04094 14.078 6.04094C13.001 6.04094 12.128 6.91399 12.128 7.99094L12.128 15.6972H10.95V12.5534C10.95 11.4765 10.0769 10.6034 8.99997 10.6034C7.92302 10.6034 7.04997 11.4765 7.04997 12.5534V15.6972H5.87185L5.87185 9.99094C5.87185 8.91399 4.9988 8.04094 3.92185 8.04094C2.84489 8.04094 1.97185 8.91399 1.97185 9.99094L1.97185 15.6972H0.933569C0.574584 15.6972 0.283569 15.9882 0.283569 16.3472C0.283569 16.7062 0.574584 16.9972 0.933569 16.9972H2.92137C2.92153 16.9972 2.92121 16.9972 2.92137 16.9972H4.92185C4.92207 16.9972 4.92162 16.9972 4.92185 16.9972H7.99907C7.99937 16.9972 7.99877 16.9972 7.99907 16.9972H9.99997C10.0003 16.9972 10.0007 16.9972 10.001 16.9972H13.0768C13.0772 16.9972 13.0776 16.9972 13.078 16.9972H15.078C15.0784 16.9972 15.0788 16.9972 15.0792 16.9972H17.0664C17.4254 16.9972 17.7164 16.7062 17.7164 16.3472C17.7164 15.9882 17.4254 15.6972 17.0664 15.6972H16.028ZM14.728 15.6972V7.99094C14.728 7.63196 14.437 7.34094 14.078 7.34094C13.719 7.34094 13.428 7.63196 13.428 7.99094V15.6972H14.728ZM3.27185 15.6972L3.27185 9.99094C3.27185 9.63196 3.56286 9.34094 3.92185 9.34094C4.28083 9.34094 4.57185 9.63196 4.57185 9.99094V15.6972H3.27185ZM8.34997 15.6972H9.64997V12.5534C9.64997 12.1945 9.35896 11.9034 8.99997 11.9034C8.64099 11.9034 8.34997 12.1945 8.34997 12.5534V15.6972Z" fill="#D6D8DE"/>
<path fill-rule="evenodd" clip-rule="evenodd" d="M16.078 2.69092C16.078 3.79549 15.1825 4.69092 14.078 4.69092C13.7418 4.69092 13.425 4.60798 13.1469 4.46145L10.8605 6.58062C10.8547 6.56614 10.8489 6.55174 10.8428 6.53743C10.944 6.7767 11 7.03978 11 7.31592C11 8.42049 10.1045 9.31592 8.99997 9.31592C7.8954 9.31592 6.99997 8.42049 6.99997 7.31592C6.99997 7.2509 7.00307 7.1866 7.00914 7.12317L5.25492 6.18188C4.90112 6.49844 4.43396 6.69092 3.92184 6.69092C2.81727 6.69092 1.92184 5.79549 1.92184 4.69092C1.92184 3.58635 2.81727 2.69092 3.92184 2.69092C5.02641 2.69092 5.92184 3.58635 5.92184 4.69092C5.92184 4.81259 5.91098 4.93173 5.89016 5.04741L7.5502 5.93817C7.51781 5.97224 7.48661 6.00745 7.45667 6.04373C7.8235 5.59924 8.37865 5.31592 8.99997 5.31592C9.37033 5.31592 9.71719 5.41659 10.0147 5.59206C10.0147 5.59206 10.0147 5.59206 10.0147 5.59206L12.2553 3.51538C12.1414 3.26399 12.078 2.98486 12.078 2.69092C12.078 1.58635 12.9734 0.690918 14.078 0.690918C15.1825 0.690918 16.078 1.58635 16.078 2.69092ZM14.778 2.69092C14.778 3.07752 14.4646 3.39092 14.078 3.39092C13.6914 3.39092 13.378 3.07752 13.378 2.69092C13.378 2.30432 13.6914 1.99092 14.078 1.99092C14.4646 1.99092 14.778 2.30432 14.778 2.69092ZM4.62184 4.69092C4.62184 5.07752 4.30844 5.39092 3.92184 5.39092C3.53524 5.39092 3.22184 5.07752 3.22184 4.69092C3.22184 4.30432 3.53524 3.99092 3.92184 3.99092C4.30844 3.99092 4.62184 4.30432 4.62184 4.69092ZM8.99997 8.01592C9.38657 8.01592 9.69997 7.70252 9.69997 7.31592C9.69997 6.92932 9.38657 6.61592 8.99997 6.61592C8.61337 6.61592 8.29997 6.92932 8.29997 7.31592C8.29997 7.70252 8.61337 8.01592 8.99997 8.01592Z" fill="#D6D8DE"/>
</svg>
